<?xml version="1.0" encoding="UTF-8" standalone="no"?>
<svg width="91px" height="35px" viewBox="0 0 91 35" version="1.1" xmlns="http://www.w3.org/2000/svg" xmlns:xlink="http://www.w3.org/1999/xlink">
    <!-- Generator: Sketch 41.1 (35376) - http://www.bohemiancoding.com/sketch -->
    <title>logo</title>
    <desc>Created with Sketch.</desc>
    <defs></defs>
    <g id="branding" stroke="none" stroke-width="1" fill="none" fill-rule="evenodd">
        <g id="logo" transform="translate(-18.000000, -49.000000)">
            <g transform="translate(18.000000, 49.000000)">
                <path d="M0.592873445,1.99124431 C0.592873445,0.891510444 1.48363506,0 2.59883806,0 L88.5869088,0 C89.6947725,0 90.5928734,0.899897516 90.5928734,1.99124431 L90.5928734,26.0087557 C90.5928734,27.1084896 89.7021118,28 88.5869088,28 L2.59883806,28 C1.49097439,28 0.592873445,27.1001025 0.592873445,26.0087557 L0.592873445,1.99124431 Z M34.7402236,28 L26.4002234,28 L26.4002234,33.2951186 C26.4002234,35.0091113 27.3732497,35.4187165 28.5805667,34.2029199 L34.7402236,28 Z" id="Combined-Shape" fill="#ED767A"></path>
                <path d="M6,19.056 C6,19.216 6.144,19.36 6.304,19.36 L7.792,19.36 C7.952,19.36 8.096,19.216 8.096,19.056 L8.096,8.464 C8.096,8.304 7.952,8.16 7.792,8.16 L6.304,8.16 C6.144,8.16 6,8.304 6,8.464 L6,19.056 Z M10.208,18.992 C10.176,19.216 10.304,19.36 10.512,19.36 L11.952,19.36 C12.096,19.36 12.224,19.232 12.24,19.12 L13.168,13.056 L13.216,13.056 L16.048,19.344 C16.096,19.44 16.176,19.52 16.32,19.52 L16.608,19.52 C16.752,19.52 16.848,19.44 16.88,19.344 L19.68,13.056 L19.728,13.056 L20.672,19.12 C20.704,19.232 20.832,19.36 20.976,19.36 L22.432,19.36 C22.64,19.36 22.768,19.216 22.72,18.992 L20.832,8.24 C20.816,8.112 20.72,8 20.544,8 L20.288,8 C20.144,8 20.064,8.064 20.016,8.16 L16.496,15.712 L16.448,15.712 L12.928,8.16 C12.88,8.064 12.784,8 12.656,8 L12.4,8 C12.224,8 12.128,8.112 12.112,8.24 L10.208,18.992 Z M24.832,19.056 C24.832,19.216 24.96,19.36 25.136,19.36 L26.608,19.36 C26.768,19.36 26.912,19.216 26.912,19.056 L26.912,15.296 L28.912,15.296 C30.864,15.296 32.48,13.68 32.48,11.696 C32.48,9.76 30.864,8.16 28.896,8.16 L25.136,8.16 C24.96,8.16 24.832,8.304 24.832,8.464 L24.832,19.056 Z M26.912,13.344 L26.912,10.128 L28.832,10.128 C29.728,10.128 30.416,10.8 30.416,11.68 C30.416,12.624 29.728,13.344 28.832,13.344 L26.912,13.344 Z M34.256,19.056 C34.256,19.216 34.384,19.36 34.56,19.36 L36.032,19.36 C36.192,19.36 36.336,19.216 36.336,19.056 L36.336,14.976 L38.112,14.976 L40.24,19.216 C40.272,19.28 40.352,19.36 40.496,19.36 L42.176,19.36 C42.448,19.36 42.56,19.104 42.448,18.896 L40.256,14.832 C41.648,14.272 42.624,13.072 42.624,11.6 C42.624,9.696 41.056,8.16 39.136,8.16 L34.56,8.16 C34.384,8.16 34.256,8.304 34.256,8.464 L34.256,19.056 Z M36.352,13.264 L36.352,10.08 L38.96,10.08 C39.808,10.08 40.544,10.784 40.544,11.632 C40.544,12.528 39.808,13.264 38.96,13.264 L36.352,13.264 Z M44.816,19.056 C44.816,19.216 44.944,19.36 45.12,19.36 L51.632,19.36 C51.808,19.36 51.936,19.216 51.936,19.056 L51.936,17.744 C51.936,17.584 51.808,17.44 51.632,17.44 L46.896,17.44 L46.896,14.64 L50.848,14.64 C51.008,14.64 51.152,14.512 51.152,14.336 L51.152,13.008 C51.152,12.848 51.008,12.704 50.848,12.704 L46.896,12.704 L46.896,10.08 L51.632,10.08 C51.808,10.08 51.936,9.936 51.936,9.776 L51.936,8.464 C51.936,8.304 51.808,8.16 51.632,8.16 L45.12,8.16 C44.944,8.16 44.816,8.304 44.816,8.464 L44.816,19.056 Z M57.088,19.52 C59.344,19.52 60.768,18 60.768,16.352 C60.768,14.288 58.976,13.36 57.424,12.736 C56.128,12.208 55.536,11.696 55.536,10.944 C55.536,10.336 56.032,9.824 56.944,9.824 C57.824,9.824 58.48,10.272 59.168,10.704 C59.36,10.832 59.6,10.704 59.728,10.512 L60.336,9.6 C60.448,9.44 60.4,9.168 60.24,9.072 C59.92,8.832 58.672,8 57.04,8 C54.496,8 53.44,9.648 53.44,11.072 C53.44,12.96 54.944,13.92 56.448,14.528 C57.792,15.072 58.48,15.632 58.48,16.448 C58.48,17.136 57.856,17.68 57.024,17.68 C55.984,17.68 55.264,17.184 54.608,16.688 C54.464,16.576 54.192,16.576 54.064,16.8 L53.488,17.792 C53.344,18.048 53.408,18.144 53.568,18.272 C54.032,18.672 55.072,19.52 57.088,19.52 Z M65.808,19.52 C68.064,19.52 69.488,18 69.488,16.352 C69.488,14.288 67.696,13.36 66.144,12.736 C64.848,12.208 64.256,11.696 64.256,10.944 C64.256,10.336 64.752,9.824 65.664,9.824 C66.544,9.824 67.2,10.272 67.888,10.704 C68.08,10.832 68.32,10.704 68.448,10.512 L69.056,9.6 C69.168,9.44 69.12,9.168 68.96,9.072 C68.64,8.832 67.392,8 65.76,8 C63.216,8 62.16,9.648 62.16,11.072 C62.16,12.96 63.664,13.92 65.168,14.528 C66.512,15.072 67.2,15.632 67.2,16.448 C67.2,17.136 66.576,17.68 65.744,17.68 C64.704,17.68 63.984,17.184 63.328,16.688 C63.184,16.576 62.912,16.576 62.784,16.8 L62.208,17.792 C62.064,18.048 62.128,18.144 62.288,18.272 C62.752,18.672 63.792,19.52 65.808,19.52 Z M71.472,19.056 C71.472,19.216 71.616,19.36 71.776,19.36 L73.264,19.36 C73.424,19.36 73.568,19.216 73.568,19.056 L73.568,8.464 C73.568,8.304 73.424,8.16 73.264,8.16 L71.776,8.16 C71.616,8.16 71.472,8.304 71.472,8.464 L71.472,19.056 Z M79.888,19.344 C79.936,19.44 80.016,19.52 80.16,19.52 L80.32,19.52 C80.464,19.52 80.544,19.44 80.592,19.344 L85.552,8.576 C85.648,8.368 85.52,8.16 85.28,8.16 L83.648,8.16 C83.504,8.16 83.408,8.256 83.376,8.336 L80.288,15.216 L80.208,15.216 L77.12,8.336 C77.088,8.256 76.992,8.16 76.848,8.16 L75.216,8.16 C74.976,8.16 74.848,8.368 74.944,8.576 L79.888,19.344 Z" id="IMPRESSIV" fill="#FFFFFF"></path>
            </g>
        </g>
    </g>
</svg>