<?xml version="1.0" encoding="UTF-8" standalone="no"?>
<svg width="24px" height="24px" viewBox="0 0 24 24" version="1.1" xmlns="http://www.w3.org/2000/svg" xmlns:xlink="http://www.w3.org/1999/xlink" style="background: #4B4B55;">
    <!-- Generator: Sketch 41.1 (35376) - http://www.bohemiancoding.com/sketch -->
    <title>icon-basketball</title>
    <desc>Created with Sketch.</desc>
    <defs></defs>
    <g id="icons" stroke="none" stroke-width="1" fill="none" fill-rule="evenodd">
        <g id="icon-basketball" fill="#FFFFFF">
            <g>
                <path d="M20.9192788,20.0280087 C22.6254692,18.1336231 23.736769,15.6928695 23.9589262,13 L17.4713092,13 C17.6359878,15.2927798 18.6491228,17.5851161 20.7283303,19.8225308 L20.9192788,20.0280087 Z M19.4622893,21.3981627 C17.6583211,22.8324557 15.431976,23.7582923 13,23.9589262 L13,13 L15.4590102,13 C15.6190767,15.7615449 16.7970866,18.5301644 19.2632685,21.1839984 L19.4622893,21.3981627 Z M20.9222646,3.97530763 C22.6267656,5.86922504 23.7368986,8.30870161 23.9589262,11 L17.5376768,11 C17.7424928,9.49101882 18.2886918,7.98873659 19.1138813,6.50877268 C19.473716,5.86341498 19.8592347,5.2826211 20.2432963,4.777495 C20.4693124,4.4802338 20.6401559,4.27888195 20.7283303,4.18399837 L20.9222646,3.97530763 Z M19.4657781,2.60461222 C17.6611919,1.16873843 15.433544,0.241837062 13,0.041073777 L13,11 L15.5175967,11 C15.7304106,9.14936413 16.3743223,7.31526261 17.3670657,5.53479355 C18.068361,4.27703201 18.7737187,3.34933052 19.2632685,2.82253082 L19.4657781,2.60461222 Z M3.07716138,3.97594552 C1.37298511,5.86977279 0.263076438,8.30900375 0.041073777,11 L6.45856519,11 C6.25409425,9.48992096 5.70770273,7.98653926 4.88191809,6.50550808 C4.52208336,5.86015039 4.13656475,5.2793565 3.75250307,4.7742304 C3.52648696,4.4769692 3.35564347,4.27561736 3.26746909,4.18073377 L3.07716138,3.97594552 Z M4.53355109,2.60514601 C6.33825601,1.16896815 8.56615445,0.241861938 11,0.041073777 L11,11 L8.47857762,11 C8.26614598,9.14825649 7.62206085,7.31304494 6.62873367,5.53152895 C5.92743841,4.27376741 5.22208069,3.34606592 4.73253091,2.81926623 L4.53355109,2.60514601 Z M3.07716138,20.0240545 C1.37298511,18.1302272 0.263076438,15.6909962 0.041073777,13 L6.52425518,13 C6.35884964,15.2916912 5.34568974,17.5829135 3.26746909,19.8192662 L3.07716138,20.0240545 Z M4.53355109,21.394854 C6.33825601,22.8310318 8.56615445,23.7581381 11,23.9589262 L11,13 L8.53659946,13 C8.37579412,15.7604623 7.19774095,18.5279455 4.73253091,21.1807338 L4.53355109,21.394854 Z"></path>
            </g>
        </g>
    </g>
</svg>