<?xml version="1.0" encoding="UTF-8" standalone="no"?>
<svg width="24px" height="24px" viewBox="0 0 24 24" version="1.1" xmlns="http://www.w3.org/2000/svg" xmlns:xlink="http://www.w3.org/1999/xlink" style="background: #FFFFFF;">
    <!-- Generator: Sketch 41.1 (35376) - http://www.bohemiancoding.com/sketch -->
    <title>icon-politics-alternate</title>
    <desc>Created with Sketch.</desc>
    <defs></defs>
    <g id="icons" stroke="none" stroke-width="1" fill="none" fill-rule="evenodd">
        <g id="icon-politics-alternate" fill="#F47577">
            <g id="icon-politics">
                <path d="M12,24 C18.627417,24 24,18.627417 24,12 C24,5.372583 18.627417,0 12,0 C5.372583,0 0,5.372583 0,12 C0,18.627417 5.372583,24 12,24 Z M20.9457402,10.414744 C20.6269575,10.3284562 20.1375334,11.6527856 18.9878637,11.6527856 C17.5113113,11.6527856 16.8165054,9 14.509066,9 C12.6784506,9 12.1209859,10.5207278 11.9998449,10.5207278 C11.8787039,10.5207278 11.3210592,9 9.49080376,9 C7.18372433,9 6.48855848,11.6527856 5.01182604,11.6527856 C3.86215636,11.6527856 3.37309225,10.3284562 3.05430956,10.414744 C2.75622705,10.4955918 3.60367419,15 7.64218819,15 C10.2624703,15 11.8027432,12.8276121 11.9998449,12.8276121 C12.1973065,12.8276121 13.7373995,15 16.3576816,15 C20.3963756,15.0001876 21.2436427,10.4955918 20.9457402,10.414744 Z"></path>
            </g>
        </g>
    </g>
</svg>