<?xml version="1.0" encoding="UTF-8" standalone="no"?>
<svg width="24px" height="24px" viewBox="0 0 24 24" version="1.1" xmlns="http://www.w3.org/2000/svg" xmlns:xlink="http://www.w3.org/1999/xlink">
    <!-- Generator: Sketch 41.1 (35376) - http://www.bohemiancoding.com/sketch -->
    <title>icon-instagram</title>
    <desc>Created with Sketch.</desc>
    <defs></defs>
    <g id="icons" stroke="none" stroke-width="1" fill="none" fill-rule="evenodd">
        <g id="icon-instagram" fill="#FFFFFF">
            <g>
                <path d="M11.9810941,0.0378118162 C8.72722976,0.0378118162 8.31922976,0.0515185996 7.04134792,0.109916849 C5.76603939,0.168157549 4.89510722,0.370660832 4.13309409,0.666800875 C3.34519037,0.972971554 2.67702407,1.38265208 2.01095842,2.04871772 C1.34489278,2.71478337 0.935212254,3.38300219 0.629094092,4.17085339 C0.332796499,4.93297155 0.130293217,5.80390372 0.0721575492,7.07915974 C0.0138118162,8.35704158 5.25164114e-05,8.76498906 5.25164114e-05,12.0188534 C5.25164114e-05,15.2728228 0.0138118162,15.6807702 0.0721575492,16.9586521 C0.130293217,18.2339081 0.332796499,19.1048403 0.629094092,19.8669584 C0.935212254,20.6548096 1.34489278,21.3230284 2.01095842,21.9890941 C2.67702407,22.6551597 3.34519037,23.0648403 4.13309409,23.3710109 C4.89510722,23.667151 5.76603939,23.8696543 7.04134792,23.927895 C8.31922976,23.9861882 8.72722976,24 11.9810941,24 C15.2349584,24 15.6430109,23.9861882 16.9208928,23.927895 C18.1961488,23.8696543 19.067081,23.667151 19.8291466,23.3710109 C20.6170503,23.0648403 21.2851641,22.6551597 21.9512298,21.9890941 C22.6172954,21.3230284 23.0269759,20.6548096 23.3331466,19.8669584 C23.6293917,19.1048403 23.831895,18.2339081 23.8900832,16.9586521 C23.9484289,15.6807702 23.9621357,15.2728228 23.9621357,12.0188534 C23.9621357,8.76498906 23.9484289,8.35704158 23.8900832,7.07915974 C23.831895,5.80390372 23.6293917,4.93297155 23.3331466,4.17085339 C23.0269759,3.38300219 22.6172954,2.71478337 21.9512298,2.04871772 C21.2851641,1.38265208 20.6170503,0.972971554 19.8291466,0.666800875 C19.067081,0.370660832 18.1961488,0.168157549 16.9208928,0.109916849 C15.6430109,0.0515185996 15.2349584,0.0378118162 11.9810941,0.0378118162 M11.9810941,2.19655142 C15.1801838,2.19655142 15.5590372,2.20873523 16.822477,2.26634573 C17.9905996,2.31964989 18.6249978,2.51490591 19.0471772,2.67891466 C19.606477,2.89628009 20.0056018,3.15592123 20.4247877,3.57515974 C20.8441313,3.99445077 21.1037724,4.39352298 21.3210328,4.95277024 C21.4850416,5.37494967 21.6802976,6.00940044 21.7336018,7.17747046 C21.7912123,8.44091028 21.8034486,8.81976368 21.8034486,12.0188534 C21.8034486,15.2180481 21.7912123,15.5969015 21.7336018,16.8602363 C21.6802976,18.0284114 21.4850416,18.6628621 21.3210328,19.0850416 C21.1037724,19.6442363 20.8441313,20.0433611 20.4247877,20.4626521 C20.0056018,20.8818906 19.606477,21.1415317 19.0471772,21.3588446 C18.6249978,21.5229059 17.9905996,21.7181619 16.822477,21.7713611 C15.5592473,21.8290766 15.1804464,21.8412079 11.9810941,21.8412079 C8.78174179,21.8412079 8.40294092,21.8290766 7.13971116,21.7713611 C5.97164114,21.7181619 5.33719037,21.5229059 4.91501094,21.3588446 C4.35576368,21.1415317 3.95663895,20.8818906 3.53740044,20.4626521 C3.11821444,20.0433611 2.8585733,19.6442363 2.64120788,19.0850416 C2.47714661,18.6628621 2.28194311,18.0284114 2.22858643,16.8602363 C2.17102845,15.5969015 2.15879212,15.2180481 2.15879212,12.0188534 C2.15879212,8.81976368 2.17102845,8.44091028 2.22858643,7.17747046 C2.28194311,6.00940044 2.47714661,5.37494967 2.64120788,4.95277024 C2.8585733,4.39352298 3.11821444,3.99445077 3.53740044,3.57515974 C3.95663895,3.15592123 4.35576368,2.89628009 4.91501094,2.67891466 C5.33719037,2.51490591 5.97164114,2.31964989 7.13971116,2.26634573 C8.40315098,2.20873523 8.78200438,2.19655142 11.9810941,2.19655142" id="Fill-1"></path>
                <path d="M11.9810941,16.0125689 C9.77545733,16.0125689 7.98737856,14.2245427 7.98737856,12.0188534 C7.98737856,9.81321663 9.77545733,8.02519037 11.9810941,8.02519037 C14.1867834,8.02519037 15.9748096,9.81321663 15.9748096,12.0188534 C15.9748096,14.2245427 14.1867834,16.0125689 11.9810941,16.0125689 M11.9810941,5.86645077 C8.58322976,5.86645077 5.82869147,8.62104158 5.82869147,12.0188534 C5.82869147,15.4168228 8.58322976,18.1713085 11.9810941,18.1713085 C15.3789584,18.1713085 18.1334967,15.4168228 18.1334967,12.0188534 C18.1334967,8.62104158 15.3789584,5.86645077 11.9810941,5.86645077 Z M19.8143895,5.6233523 C19.8143895,6.41734792 19.1706958,7.06109409 18.3766477,7.06109409 C17.5826521,7.06109409 16.9389059,6.41734792 16.9389059,5.6233523 C16.9389059,4.82930416 17.5826521,4.1856105 18.3766477,4.1856105 C19.1706958,4.1856105 19.8143895,4.82930416 19.8143895,5.6233523 Z" id="Combined-Shape"></path>
            </g>
        </g>
    </g>
</svg>