<?xml version="1.0" encoding="UTF-8" standalone="no"?>
<svg width="24px" height="24px" viewBox="0 0 24 24" version="1.1" xmlns="http://www.w3.org/2000/svg" xmlns:xlink="http://www.w3.org/1999/xlink">
    <!-- Generator: Sketch 41.1 (35376) - http://www.bohemiancoding.com/sketch -->
    <title>icon-article</title>
    <desc>Created with Sketch.</desc>
    <defs></defs>
    <g id="icons" stroke="none" stroke-width="1" fill="none" fill-rule="evenodd">
        <g id="icon-article" fill="#FFFFFF">
            <path d="M3,2.00494659 C3,0.897645164 3.8926228,0 4.99508929,0 L19.0049107,0 C20.1067681,0 21,0.897026226 21,2.00494659 L21,21.9950534 C21,23.1023548 20.1073772,24 19.0049107,24 L4.99508929,24 C3.8932319,24 3,23.1029738 3,21.9950534 L3,2.00494659 Z M5,3.99810135 C5,2.89458045 5.89706013,2 7.00585866,2 L16.9941413,2 C18.1019465,2 19,2.88670635 19,3.99810135 L19,8.00189865 C19,9.10541955 18.1029399,10 16.9941413,10 L7.00585866,10 C5.89805351,10 5,9.11329365 5,8.00189865 L5,3.99810135 Z M5,13 C5,12.4477153 5.44994876,12 6.00684547,12 L17.9931545,12 C18.5492199,12 19,12.4438648 19,13 C19,13.5522847 18.5500512,14 17.9931545,14 L6.00684547,14 C5.45078007,14 5,13.5561352 5,13 Z M5,17 C5,16.4477153 5.44483697,16 5.9955775,16 L15.0044225,16 C15.5542648,16 16,16.4438648 16,17 C16,17.5522847 15.555163,18 15.0044225,18 L5.9955775,18 C5.44573523,18 5,17.5561352 5,17 Z M5,21 C5,20.4477153 5.44994876,20 6.00684547,20 L17.9931545,20 C18.5492199,20 19,20.4438648 19,21 C19,21.5522847 18.5500512,22 17.9931545,22 L6.00684547,22 C5.45078007,22 5,21.5561352 5,21 Z" id="Combined-Shape"></path>
        </g>
    </g>
</svg>