<?xml version="1.0" encoding="UTF-8" standalone="no"?>
<svg width="24px" height="24px" viewBox="0 0 24 24" version="1.1" xmlns="http://www.w3.org/2000/svg" xmlns:xlink="http://www.w3.org/1999/xlink">
    <!-- Generator: Sketch 41.1 (35376) - http://www.bohemiancoding.com/sketch -->
    <title>icon-twitter-alternate</title>
    <desc>Created with Sketch.</desc>
    <defs></defs>
    <g id="icons" stroke="none" stroke-width="1" fill="none" fill-rule="evenodd">
        <g id="icon-twitter-alternate" fill="#4B4C55">
            <path d="M7.54752,22.1666667 C16.60416,22.1666667 21.55776,14.4714693 21.55776,7.79822889 C21.55776,7.57966008 21.55776,7.36207582 21.54336,7.1454761 C22.5070381,6.43060926 23.3389013,5.54547306 24,4.5315113 C23.1013239,4.93990197 22.1479961,5.20772445 21.17184,5.32603845 C22.1997542,4.69492797 22.9690786,3.70230061 23.33664,2.53288661 C22.3700712,3.12110777 21.3126203,3.53565669 20.20992,3.75864412 C18.6835995,2.09416809 16.2582906,1.68678173 14.2939673,2.76492391 C12.329644,3.84306609 11.314824,6.1386081 11.81856,8.3643418 C7.85941991,8.16078683 4.17069675,6.24296736 1.6704,3.08816953 C0.363477846,5.39559131 1.03102837,8.3474662 3.19488,9.82934354 C2.41127155,9.805525 1.6447482,9.58873391 0.96,9.19726617 L0.96,9.26126154 C0.960641408,11.6651177 2.61288143,13.7355572 4.9104,14.2115497 C4.18547481,14.4143068 3.42487736,14.4439457 2.68704,14.2981896 C3.33211001,16.3553187 5.18071158,17.7645568 7.28736,17.8051359 C5.54374564,19.2105058 3.38981713,19.9734249 1.17216,19.9711331 C0.780387426,19.9703618 0.388995903,19.9460346 0,19.8982769 C2.25181051,21.3802881 4.87191687,22.166388 7.54752,22.1627285" id="icon-twitter"></path>
        </g>
    </g>
</svg>